SplineFontDB: 3.2
FontName: UFFulmo
FullName: UF Fulmo
FamilyName: UF Fulmo
Weight: Regular
Copyright: Copyright (c) 2021 ura
UComments: "Created with FontForge (http://fontforge.org)"
Version: 1.000
ItalicAngle: 0
UnderlinePosition: -102
UnderlineWidth: 51
Ascent: 819
Descent: 205
InvalidEm: 0
LayerCount: 2
Layer: 0 1 "+gMyXYgAA" 1
Layer: 1 1 "+Uk2XYgAA" 0
XUID: [1021 441 -436763822 5018]
StyleMap: 0x0000
FSType: 0
OS2Version: 0
OS2_WeightWidthSlopeOnly: 0
OS2_UseTypoMetrics: 1
CreationTime: 1638943778
ModificationTime: 1639886876
OS2TypoAscent: 0
OS2TypoAOffset: 1
OS2TypoDescent: 0
OS2TypoDOffset: 1
OS2TypoLinegap: 92
OS2WinAscent: 0
OS2WinAOffset: 1
OS2WinDescent: 0
OS2WinDOffset: 1
HheadAscent: 0
HheadAOffset: 1
HheadDescent: 0
HheadDOffset: 1
OS2Vendor: 'PfEd'
Lookup: 4 0 1 "'liga' +ahluljBuVAhbVwAA in +MOkwxjDzZYdbVwAA lookup 0" { "'liga' +ahluljBuVAhbVwAA in +MOkwxjDzZYdbVwAA lookup 0-1"  } ['liga' ('DFLT' <'dflt' > 'latn' <'dflt' > ) ]
MarkAttachClasses: 1
DEI: 91125

StartChar: A
Encoding: 65 65 0
Width: 864
Flags: W
HStem: 246 208<261.596 451.635>
VStem: 204 305<295.287 404.46>
LayerCount: 2
Back
SplineSet
72 0 m 1,0,-1
 72 576 l 1,1,-1
 360 720 l 1,3,-1
 648 576 l 1,4,-1
 648 72 l 1,5,-1
 792 0 l 1049,6,-1
360 144 m 1,7,-1
 216 216 l 1,8,-1
 216 360 l 1,9,-1
 360 432 l 1,10,-1
 504 360 l 1,11,-1
 504 216 l 1,12,-1
 360 144 l 1,7,-1
EndSplineSet
Fore
SplineSet
252 238.252728803 m 1,0,-1
 360 184.252728803 l 1,1,-1
 468 238.252728803 l 1,2,-1
 468 337.747271197 l 1,3,-1
 360 391.747271197 l 1,4,-1
 252 337.747271197 l 1,5,-1
 252 238.252728803 l 1,0,-1
343.93528638 111.779628007 m 1,6,-1
 199.93528638 183.779628007 l 1,7,-1
 180 216 l 1,8,-1
 180 360 l 1,9,-1
 199.93528638 392.220371993 l 1,10,-1
 343.93528638 464.220371993 l 1,11,-1
 376.06471362 464.220371993 l 1,12,-1
 520.06471362 392.220371993 l 1,13,-1
 540 360 l 1,14,-1
 540 216 l 1,15,-1
 520.06471362 183.779628007 l 1,16,-1
 376.06471362 111.779628007 l 1,17,-1
 343.93528638 111.779628007 l 1,6,-1
108 -36 m 1,18,-1
 36 -36 l 1,19,-1
 36 576 l 1,20,-1
 55.93528638 608.220371993 l 1,21,-1
 343.93528638 752.220371993 l 1,22,-1
 376.06471362 752.220371993 l 1,23,-1
 664.06471362 608.220371993 l 1,24,-1
 684 576 l 1,25,-1
 684 94.2527288034 l 1,26,-1
 840.303274564 16.1010915214 l 1,27,-1
 808.101091521 -48.3032745641 l 1,28,-1
 631.93528638 39.7796280066 l 1,29,-1
 612 72 l 1,30,-1
 612 553.747271197 l 1,31,-1
 360 679.747271197 l 1,32,-1
 108 553.747271197 l 1,33,-1
 108 -36 l 1,18,-1
EndSplineSet
EndChar

StartChar: B
Encoding: 66 66 1
Width: 720
Flags: W
HStem: 45 386<224.703 439.649>
VStem: 79 547<181.444 327.034>
LayerCount: 2
Back
SplineSet
288 720 m 1,0,-1
 288 432 l 1,1,-1
 576 576 l 1,2,-1
 288 720 l 1,0,-1
360 216 m 1049,3,-1
360 0 m 1,4,-1
 72 144 l 1,5,-1
 72 288 l 1,6,-1
 360 432 l 1,7,-1
 648 288 l 1,8,-1
 648 144 l 1,9,-1
 360 0 l 1,4,-1
EndSplineSet
Fore
SplineSet
360 216 m 1049,0,-1
313 267 m 1,1,-1
 380.666992188 282.203125 l 1,2,-1
 427.666992188 231.203125 l 1,3,-1
 407 165 l 1,4,-1
 339.333007812 149.796875 l 1,5,-1
 292.333007812 200.796875 l 1,6,-1
 313 267 l 1,1,-1
108 166.252728803 m 1,7,-1
 360 40.2527288034 l 1,8,-1
 612 166.252728803 l 1,9,-1
 612 265.747271197 l 1,10,-1
 360 391.747271197 l 1,11,-1
 108 265.747271197 l 1,12,-1
 108 166.252728803 l 1,7,-1
343.93528638 -32.2203719934 m 1,13,-1
 55.93528638 111.779628007 l 1,14,-1
 36 144 l 1,15,-1
 36 288 l 1,16,-1
 55.93528638 320.220371993 l 1,17,-1
 264.286939215 424.396198411 l 1,18,-1
 252 432 l 1,19,-1
 252 720 l 1,20,-1
 304.06471362 752.220371993 l 1,21,-1
 592.06471362 608.220371993 l 1,22,-1
 592.06471362 543.779628007 l 1,23,-1
 404.505457607 450 l 1,24,-1
 664.06471362 320.220371993 l 1,25,-1
 684 288 l 1,26,-1
 684 144 l 1,27,-1
 664.06471362 111.779628007 l 1,28,-1
 376.06471362 -32.2203719934 l 1,29,-1
 343.93528638 -32.2203719934 l 1,13,-1
495.494542393 576 m 1,30,-1
 324 661.747271197 l 1,31,-1
 324 490.252728803 l 1,32,-1
 495.494542393 576 l 1,30,-1
EndSplineSet
EndChar

StartChar: O
Encoding: 79 79 2
Width: 864
Flags: W
LayerCount: 2
Back
SplineSet
432 360 m 1049,0,-1
576 0 m 1,1,-1
 288 0 l 17,2,-1
 72 360 l 1,3,-1
 288 720 l 9,4,-1
 576 720 l 1,5,-1
 792 360 l 1041,6,-1
EndSplineSet
Fore
SplineSet
432 360 m 1049,0,-1
385 411 m 1,1,-1
 452.666992188 426.203125 l 1,2,-1
 499.666992188 375.203125 l 1,3,-1
 479 309 l 1,4,-1
 411.333007812 293.796875 l 1,5,-1
 364.333007812 344.796875 l 1,6,-1
 385 411 l 1,1,-1
612 36 m 1,7,-1
 612 -36 l 1,8,-1
 288 -36 l 1,9,-1
 257.10736333 -18.4832759215 l 1,10,-1
 41.1073633298 341.516724078 l 1,11,-1
 41.1073633298 378.483275922 l 1,12,-1
 257.10736333 738.483275922 l 1,13,-1
 288 756 l 1,14,-1
 576 756 l 1,15,-1
 606.89263667 738.483275922 l 1,16,-1
 841.391296733 347.652175817 l 1,17,-1
 779.652175817 310.608703267 l 1,18,-1
 555.617397777 684 l 1,19,-1
 308.382602223 684 l 1,20,-1
 113.982602223 360 l 1,21,-1
 308.382602223 36 l 1,22,-1
 612 36 l 1,7,-1
EndSplineSet
EndChar

StartChar: N
Encoding: 78 78 3
Width: 720
Flags: W
LayerCount: 2
Back
SplineSet
648 72 m 25,0,-1
 72 72 l 25,1,-1
 288 504 l 25,2,-1
 504 72 l 1049,3,-1
EndSplineSet
Fore
SplineSet
684 108 m 1,0,-1
 684 36 l 1,1,-1
 72 36 l 1,2,-1
 39.7796280066 88.06471362 l 1,3,-1
 255.779628007 520.06471362 l 1,4,-1
 320.220371993 520.06471362 l 1,5,-1
 526.252728803 108 l 1,6,-1
 684 108 l 1,0,-1
288 423.494542393 m 1,7,-1
 130.252728803 108 l 1,8,-1
 445.747271197 108 l 1,9,-1
 288 423.494542393 l 1,7,-1
EndSplineSet
EndChar

StartChar: M
Encoding: 77 77 4
Width: 864
Flags: W
LayerCount: 2
Back
SplineSet
792 72 m 25,0,-1
 72 72 l 1,1,-1
 216 504 l 25,2,-1
 360 72 l 25,3,-1
 504 504 l 25,4,-1
 648 72 l 1049,5,-1
EndSplineSet
Fore
SplineSet
828 108 m 1,0,-1
 828 36 l 1,1,-1
 72 36 l 1,2,-1
 37.8380917353 83.3782038959 l 1,3,-1
 181.838091735 515.378203896 l 1,4,-1
 250.161908265 515.378203896 l 1,5,-1
 360 185.86392869 l 1,6,-1
 469.838091735 515.378203896 l 1,7,-1
 538.161908265 515.378203896 l 1,8,-1
 673.954642897 108 l 1,9,-1
 828 108 l 1,0,-1
504 390.13607131 m 1,10,-1
 409.954642897 108 l 1,11,-1
 598.045357103 108 l 1,12,-1
 504 390.13607131 l 1,10,-1
216 390.13607131 m 1,13,-1
 121.954642897 108 l 1,14,-1
 310.045357103 108 l 1,15,-1
 216 390.13607131 l 1,13,-1
EndSplineSet
EndChar

StartChar: T
Encoding: 84 84 5
Width: 720
Flags: W
HStem: 248 388<258.67 445.455>
VStem: 106 485<344.39 494.265>
LayerCount: 2
Back
SplineSet
216 288 m 25,0,-1
 72 504 l 1,1,-1
 216 720 l 25,2,-1
 504 720 l 25,3,-1
 648 504 l 25,4,-1
 504 288 l 1,5,-1
 216 288 l 25,0,-1
360 0 m 25,6,-1
 360 720 l 1049,7,-1
EndSplineSet
Fore
SplineSet
396 -36 m 1,0,-1
 324 -36 l 1,1,-1
 324 252 l 1,2,-1
 216 252 l 1,3,-1
 186.024708617 268.067163417 l 1,4,-1
 42.0247086173 484.067163417 l 1,5,-1
 42.0247086173 523.932836583 l 1,6,-1
 186.024708617 739.932836583 l 1,7,-1
 216 756 l 1,8,-1
 504 756 l 1,9,-1
 533.975291383 739.932836583 l 1,10,-1
 677.975291383 523.932836583 l 1,11,-1
 677.975291383 484.067163417 l 1,12,-1
 533.975291383 268.067163417 l 1,13,-1
 504 252 l 1,14,-1
 396 252 l 1,15,-1
 396 -36 l 1,0,-1
324 324 m 1,16,-1
 324 684 l 1,17,-1
 235.263849104 684 l 1,18,-1
 115.263849104 504 l 1,19,-1
 235.263849104 324 l 1,20,-1
 324 324 l 1,16,-1
396 684 m 1,21,-1
 396 324 l 1,22,-1
 484.736150896 324 l 1,23,-1
 604.736150896 504 l 1,24,-1
 484.736150896 684 l 1,25,-1
 396 684 l 1,21,-1
EndSplineSet
EndChar

StartChar: E
Encoding: 69 69 6
Width: 720
Flags: W
HStem: 271 380<162.452 340.181>
VStem: 54 405<362.188 528.121>
LayerCount: 2
Back
SplineSet
504 144 m 1,0,-1
 216 144 l 1049,1,-1
504 288 m 1,2,-1
 216 288 l 1,3,-1
 72 504 l 1,4,-1
 216 720 l 1,5,-1
 504 720 l 1,6,-1
 648 504 l 1,7,-1
 504 288 l 1,2,-1
216 288 m 1,8,-1
 216 0 l 1,9,-1
 504 0 l 1049,10,-1
EndSplineSet
Fore
SplineSet
540 180 m 1,0,-1
 540 108 l 1,1,-1
 252 108 l 1,2,-1
 252 36 l 1,3,-1
 540 36 l 1,4,-1
 540 -36 l 1,5,-1
 216 -36 l 1,6,-1
 180 0 l 1,7,-1
 180 277.104226343 l 1,8,-1
 42.0247086173 484.067163417 l 1,9,-1
 42.0247086173 523.932836583 l 1,10,-1
 186.024708617 739.932836583 l 1,11,-1
 216 756 l 1,12,-1
 504 756 l 1,13,-1
 533.975291383 739.932836583 l 1,14,-1
 677.975291383 523.932836583 l 1,15,-1
 677.975291383 484.067163417 l 1,16,-1
 533.975291383 268.067163417 l 1,17,-1
 504 252 l 1,18,-1
 252 252 l 1,19,-1
 252 180 l 1,20,-1
 540 180 l 1,0,-1
235.263849104 324 m 1,21,-1
 484.736150896 324 l 1,22,-1
 604.736150896 504 l 1,23,-1
 484.736150896 684 l 1,24,-1
 235.263849104 684 l 1,25,-1
 115.263849104 504 l 1,26,-1
 235.263849104 324 l 1,21,-1
EndSplineSet
EndChar

StartChar: C
Encoding: 67 67 7
Width: 720
Flags: W
LayerCount: 2
Back
SplineSet
360 216 m 1,0,-1
 72 360 l 1,1,-1
 72 576 l 1,2,-1
 360 720 l 1,3,-1
 648 576 l 1,4,-1
 648 360 l 1,5,-1
 360 216 l 1,0,-1
72 360 m 1,6,-1
 72 144 l 1,7,-1
 360 0 l 1049,8,-1
EndSplineSet
Fore
SplineSet
108 382.252728803 m 1,0,-1
 360 256.252728803 l 1,1,-1
 612 382.252728803 l 1,2,-1
 612 553.747271197 l 1,3,-1
 360 679.747271197 l 1,4,-1
 108 553.747271197 l 1,5,-1
 108 382.252728803 l 1,0,-1
36 144 m 1,6,-1
 36 576 l 1,7,-1
 55.93528638 608.220371993 l 1,8,-1
 343.93528638 752.220371993 l 1,9,-1
 376.06471362 752.220371993 l 1,10,-1
 664.06471362 608.220371993 l 1,11,-1
 684 576 l 1,12,-1
 684 360 l 1,13,-1
 664.06471362 327.779628007 l 1,14,-1
 376.06471362 183.779628007 l 1,15,-1
 343.93528638 183.779628007 l 1,16,-1
 108 301.747271197 l 1,17,-1
 108 166.252728803 l 1,18,-1
 408.303274564 16.1010915214 l 1,19,-1
 376.101091521 -48.3032745641 l 1,20,-1
 55.93528638 111.779628007 l 1,21,-1
 36 144 l 1,6,-1
EndSplineSet
EndChar

StartChar: L
Encoding: 76 76 8
Width: 864
Flags: W
LayerCount: 2
Back
SplineSet
72 0 m 1,0,-1
 792 0 l 1025,1,-1
432 360 m 1025,2,-1
288 0 m 17,3,-1
 72 360 l 1,4,-1
 288 720 l 9,5,-1
 576 720 l 1,6,-1
 792 360 l 25,7,-1
 576 0 l 1,8,-1
 288 0 l 17,3,-1
EndSplineSet
Fore
SplineSet
432 360 m 1049,0,-1
385 411 m 1,1,-1
 452.666992188 426.203125 l 1,2,-1
 499.666992188 375.203125 l 1,3,-1
 479 309 l 1,4,-1
 411.333007812 293.796875 l 1,5,-1
 364.333007812 344.796875 l 1,6,-1
 385 411 l 1,1,-1
36 -36 m 1,7,-1
 36 36 l 1,8,-1
 224.417397777 36 l 1,9,-1
 41.1073633298 341.516724078 l 1,10,-1
 41.1073633298 378.483275922 l 1,11,-1
 257.10736333 738.483275922 l 1,12,-1
 288 756 l 1,13,-1
 576 756 l 1,14,-1
 606.89263667 738.483275922 l 1,15,-1
 822.89263667 378.483275922 l 1,16,-1
 822.89263667 341.516724078 l 1,17,-1
 639.582602223 36 l 1,18,-1
 828 36 l 1,19,-1
 828 -36 l 1,20,-1
 36 -36 l 1,7,-1
308.382602223 36 m 1,21,-1
 555.617397777 36 l 1,22,-1
 750.017397777 360 l 1,23,-1
 555.617397777 684 l 1,24,-1
 308.382602223 684 l 1,25,-1
 113.982602223 360 l 1,26,-1
 308.382602223 36 l 1,21,-1
EndSplineSet
EndChar

StartChar: U
Encoding: 85 85 9
Width: 864
Flags: W
LayerCount: 2
Back
SplineSet
72 432 m 25,0,-1
 792 432 l 1049,1,-1
216 432 m 25,2,-1
 216 144 l 25,3,-1
 432 0 l 25,4,-1
 648 144 l 25,5,-1
 648 432 l 1049,6,-1
EndSplineSet
Fore
SplineSet
36 396 m 1,0,-1
 36 468 l 1,1,-1
 828 468 l 1,2,-1
 828 396 l 1,3,-1
 684 396 l 1,4,-1
 684 144 l 1,5,-1
 667.932836583 114.024708617 l 1,6,-1
 451.932836583 -29.9752913827 l 1,7,-1
 412.067163417 -29.9752913827 l 1,8,-1
 196.067163417 114.024708617 l 1,9,-1
 180 144 l 1,10,-1
 180 396 l 1,11,-1
 36 396 l 1,0,-1
252 396 m 1,12,-1
 252 163.263849104 l 1,13,-1
 432 43.2638491044 l 1,14,-1
 612 163.263849104 l 1,15,-1
 612 396 l 1,16,-1
 252 396 l 1,12,-1
EndSplineSet
EndChar

StartChar: P
Encoding: 80 80 10
Width: 720
Flags: W
LayerCount: 2
Back
SplineSet
360 432 m 1049,0,-1
360 144 m 1,1,-1
 72 288 l 1,2,-1
 72 576 l 1,3,-1
 360 720 l 1,4,-1
 648 576 l 1,5,-1
 648 288 l 1,6,-1
 360 144 l 1,1,-1
72 0 m 1,7,-1
 72 288 l 1049,8,-1
EndSplineSet
Fore
SplineSet
360 432 m 1049,0,-1
313 483 m 1,1,-1
 380.666992188 498.203125 l 1,2,-1
 427.666992188 447.203125 l 1,3,-1
 407 381 l 1,4,-1
 339.333007812 365.796875 l 1,5,-1
 292.333007812 416.796875 l 1,6,-1
 313 483 l 1,1,-1
108 -36 m 1,7,-1
 36 -36 l 1,8,-1
 36 576 l 1,9,-1
 55.93528638 608.220371993 l 1,10,-1
 343.93528638 752.220371993 l 1,11,-1
 376.06471362 752.220371993 l 1,12,-1
 664.06471362 608.220371993 l 1,13,-1
 684 576 l 1,14,-1
 684 288 l 1,15,-1
 664.06471362 255.779628007 l 1,16,-1
 376.06471362 111.779628007 l 1,17,-1
 343.93528638 111.779628007 l 1,18,-1
 108 229.747271197 l 1,19,-1
 108 -36 l 1,7,-1
108 310.252728803 m 1,20,-1
 360 184.252728803 l 1,21,-1
 612 310.252728803 l 1,22,-1
 612 553.747271197 l 1,23,-1
 360 679.747271197 l 1,24,-1
 108 553.747271197 l 1,25,-1
 108 310.252728803 l 1,20,-1
EndSplineSet
EndChar

StartChar: S
Encoding: 83 83 11
Width: 712
Flags: W
LayerCount: 2
Back
SplineSet
72 72 m 25,0,-1
 360 216 l 25,1,-1
 360 504 l 25,2,-1
 648 648 l 1049,3,-1
EndSplineSet
Fore
SplineSet
55.8989084786 23.6967254359 m 1,0,-1
 23.6967254359 88.1010915214 l 1,1,-1
 324 238.252728803 l 1,2,-1
 324 504 l 1,3,-1
 343.93528638 536.220371993 l 1,4,-1
 664.101091521 696.303274564 l 1,5,-1
 696.303274564 631.898908479 l 1,6,-1
 396 481.747271197 l 1,7,-1
 396 216 l 1,8,-1
 376.06471362 183.779628007 l 1,9,-1
 55.8989084786 23.6967254359 l 1,0,-1
EndSplineSet
EndChar

StartChar: J
Encoding: 74 74 12
Width: 720
Flags: W
LayerCount: 2
Back
SplineSet
72 720 m 5,0,-1
 360 288 l 5,1,-1
 648 720 l 5,2,-1
 72 720 l 5,0,-1
360 288 m 29,3,-1
 360 0 l 13,4,-1
 576 0 l 1053,5,-1
EndSplineSet
Fore
SplineSet
580.736150896 684 m 1,0,-1
 139.263849104 684 l 1,1,-1
 360 352.895773657 l 1,2,-1
 580.736150896 684 l 1,0,-1
396 36 m 1,3,-1
 612 36 l 1,4,-1
 612 -36 l 1,5,-1
 360 -36 l 1,6,-1
 324 0 l 1,7,-1
 324 277.104226343 l 1,8,-1
 42.0247086173 700.067163417 l 1,9,-1
 72 756 l 1,10,-1
 648 756 l 1,11,-1
 677.975291383 700.067163417 l 1,12,-1
 396 277.104226343 l 1,13,-1
 396 36 l 1,3,-1
EndSplineSet
EndChar

StartChar: G
Encoding: 71 71 13
Width: 864
Flags: W
LayerCount: 2
Back
SplineSet
504 0 m 25,0,-1
 216 0 l 25,1,-1
 72 360 l 25,2,-1
 216 720 l 25,3,-1
 504 720 l 25,4,-1
 648 360 l 1049,5,-1
504 360 m 25,9,-1
 792 360 l 1,7,-1
 648 0 l 1,8,-1
 504 360 l 25,9,-1
360 360 m 1025,10,-1
EndSplineSet
Fore
SplineSet
360 360 m 1049,0,-1
313 411 m 1,1,-1
 380.666992188 426.203125 l 1,2,-1
 427.666992188 375.203125 l 1,3,-1
 407 309 l 1,4,-1
 339.333007812 293.796875 l 1,5,-1
 292.333007812 344.796875 l 1,6,-1
 313 411 l 1,1,-1
540 36 m 1,7,-1
 540 -36 l 1,8,-1
 216 -36 l 1,9,-1
 182.560069553 -13.3491207927 l 1,10,-1
 38.5600695527 346.650879207 l 1,11,-1
 38.5600695527 373.349120793 l 1,12,-1
 182.560069553 733.349120793 l 1,13,-1
 216 756 l 1,14,-1
 504 756 l 1,15,-1
 537.439930447 733.349120793 l 1,16,-1
 672.379578764 396 l 1,17,-1
 792 396 l 1,18,-1
 825.439930447 346.650879207 l 1,19,-1
 681.439930447 -13.3491207927 l 1,20,-1
 614.560069553 -13.3491207927 l 1,21,-1
 470.560069553 346.650879207 l 1,22,-1
 504 396 l 1,23,-1
 594.820421236 396 l 1,24,-1
 479.620421236 684 l 1,25,-1
 240.379578764 684 l 1,26,-1
 110.779578764 360 l 1,27,-1
 240.379578764 36 l 1,28,-1
 540 36 l 1,7,-1
557.179578764 324 m 1,29,-1
 648 96.948946911 l 1,30,-1
 738.820421236 324 l 1,31,-1
 557.179578764 324 l 1,29,-1
EndSplineSet
EndChar

StartChar: V
Encoding: 86 86 14
Width: 720
Flags: W
LayerCount: 2
Back
SplineSet
72 432 m 1,0,-1
 360 0 l 1,1,-1
 648 432 l 1,2,-1
 72 432 l 1,0,-1
EndSplineSet
Fore
SplineSet
580.736150896 396 m 1,0,-1
 139.263849104 396 l 1,1,-1
 360 64.8957736567 l 1,2,-1
 580.736150896 396 l 1,0,-1
72 468 m 1,3,-1
 648 468 l 1,4,-1
 677.975291383 412.067163417 l 1,5,-1
 389.975291383 -19.9328365827 l 1,6,-1
 330.024708617 -19.9328365827 l 1,7,-1
 42.0247086173 412.067163417 l 1,8,-1
 72 468 l 1,3,-1
EndSplineSet
EndChar

StartChar: R
Encoding: 82 82 15
Width: 864
Flags: W
HStem: 16 665<338.399 515.045>
VStem: 85 631<242.729 434.95>
LayerCount: 2
Back
SplineSet
72 360 m 1,0,-1
 792 360 l 1025,1,-1
432 720 m 1,2,-1
 432 0 l 1025,3,-1
288 0 m 17,4,-1
 72 360 l 1,5,-1
 288 720 l 9,6,-1
 576 720 l 1,7,-1
 792 360 l 25,8,-1
 576 0 l 1,9,-1
 288 0 l 17,4,-1
EndSplineSet
Fore
SplineSet
257.10736333 -18.4832759215 m 1,0,-1
 41.1073633298 341.516724078 l 1,1,-1
 41.1073633298 378.483275922 l 1,2,-1
 257.10736333 738.483275922 l 1,3,-1
 288 756 l 1,4,-1
 576 756 l 1,5,-1
 606.89263667 738.483275922 l 1,6,-1
 822.89263667 378.483275922 l 1,7,-1
 822.89263667 341.516724078 l 1,8,-1
 606.89263667 -18.4832759215 l 1,9,-1
 576 -36 l 1,10,-1
 288 -36 l 1,11,-1
 257.10736333 -18.4832759215 l 1,0,-1
135.582602223 396 m 1,12,-1
 396 396 l 1,13,-1
 396 684 l 1,14,-1
 308.382602223 684 l 1,15,-1
 135.582602223 396 l 1,12,-1
468 684 m 1,16,-1
 468 396 l 1,17,-1
 728.417397777 396 l 1,18,-1
 555.617397777 684 l 1,19,-1
 468 684 l 1,16,-1
728.417397777 324 m 1,20,-1
 468 324 l 1,21,-1
 468 36 l 1,22,-1
 555.617397777 36 l 1,23,-1
 728.417397777 324 l 1,20,-1
396 36 m 1,24,-1
 396 324 l 1,25,-1
 135.582602223 324 l 1,26,-1
 308.382602223 36 l 1,27,-1
 396 36 l 1,24,-1
EndSplineSet
EndChar

StartChar: K
Encoding: 75 75 16
Width: 864
Flags: W
LayerCount: 2
Back
SplineSet
504 216 m 1,0,-1
 792 72 l 1,1,-1
 792 576 l 1,2,-1
 504 432 l 1,3,-1
 504 216 l 1,0,-1
288 0 m 1,4,-1
 72 144 l 1,5,-1
 72 576 l 1,6,-1
 288 720 l 1,7,-1
 504 576 l 1,8,-1
 504 144 l 1,9,-1
 288 0 l 1,4,-1
EndSplineSet
Fore
SplineSet
468 163.263849104 m 1,0,-1
 468 556.736150896 l 1,1,-1
 288 676.736150896 l 1,2,-1
 108 556.736150896 l 1,3,-1
 108 163.263849104 l 1,4,-1
 288 43.2638491044 l 1,5,-1
 468 163.263849104 l 1,0,-1
268.067163417 -29.9752913827 m 1,6,-1
 52.0671634173 114.024708617 l 1,7,-1
 36 144 l 1,8,-1
 36 576 l 1,9,-1
 52.0671634173 605.975291383 l 1,10,-1
 268.067163417 749.975291383 l 1,11,-1
 307.932836583 749.975291383 l 1,12,-1
 523.932836583 605.975291383 l 1,13,-1
 540 576 l 1,14,-1
 540 490.252728803 l 1,15,-1
 775.93528638 608.220371993 l 1,16,-1
 828 576 l 1,17,-1
 828 72 l 1,18,-1
 775.93528638 39.7796280066 l 1,19,-1
 540 157.747271197 l 1,20,-1
 540 144 l 1,21,-1
 523.932836583 114.024708617 l 1,22,-1
 307.932836583 -29.9752913827 l 1,23,-1
 268.067163417 -29.9752913827 l 1,6,-1
540 409.747271197 m 1,24,-1
 540 238.252728803 l 1,25,-1
 756 130.252728803 l 1,26,-1
 756 517.747271197 l 1,27,-1
 540 409.747271197 l 1,24,-1
EndSplineSet
EndChar

StartChar: D
Encoding: 68 68 17
Width: 720
Flags: W
LayerCount: 2
Back
SplineSet
360 360 m 1049,0,-1
216 0 m 1,1,-1
 72 72 l 1,2,-1
 72 648 l 1,3,-1
 216 720 l 1,4,-1
 648 504 l 1,5,-1
 648 216 l 1,6,-1
 216 0 l 1,1,-1
EndSplineSet
Fore
SplineSet
360 360 m 1049,0,-1
313 411 m 1,1,-1
 380.666992188 426.203125 l 1,2,-1
 427.666992188 375.203125 l 1,3,-1
 407 309 l 1,4,-1
 339.333007812 293.796875 l 1,5,-1
 292.333007812 344.796875 l 1,6,-1
 313 411 l 1,1,-1
108 94.2527288034 m 1,7,-1
 216 40.2527288034 l 1,8,-1
 612 238.252728803 l 1,9,-1
 612 481.747271197 l 1,10,-1
 216 679.747271197 l 1,11,-1
 108 625.747271197 l 1,12,-1
 108 94.2527288034 l 1,7,-1
199.93528638 -32.2203719934 m 1,13,-1
 55.93528638 39.7796280066 l 1,14,-1
 36 72 l 1,15,-1
 36 648 l 1,16,-1
 55.93528638 680.220371993 l 1,17,-1
 199.93528638 752.220371993 l 1,18,-1
 232.06471362 752.220371993 l 1,19,-1
 664.06471362 536.220371993 l 1,20,-1
 684 504 l 1,21,-1
 684 216 l 1,22,-1
 664.06471362 183.779628007 l 1,23,-1
 232.06471362 -32.2203719934 l 1,24,-1
 199.93528638 -32.2203719934 l 1,13,-1
EndSplineSet
EndChar

StartChar: I
Encoding: 73 73 18
Width: 720
Flags: W
HStem: 259 415<254.362 476.784>
VStem: 93 547<410.481 526.099>
LayerCount: 2
Back
SplineSet
360 504 m 1049,0,-1
216 288 m 25,1,-1
 72 504 l 1,2,-1
 216 720 l 1,3,-1
 504 720 l 1,4,-1
 648 504 l 1,5,-1
 504 288 l 1,6,-1
 216 288 l 25,1,-1
360 0 m 1,7,-1
 360 288 l 1025,8,-1
EndSplineSet
Fore
SplineSet
360 504 m 1049,0,-1
313 555 m 1,1,-1
 380.666992188 570.203125 l 1,2,-1
 427.666992188 519.203125 l 1,3,-1
 407 453 l 1,4,-1
 339.333007812 437.796875 l 1,5,-1
 292.333007812 488.796875 l 1,6,-1
 313 555 l 1,1,-1
396 -36 m 1,7,-1
 324 -36 l 1,8,-1
 324 252 l 1,9,-1
 216 252 l 1,10,-1
 186.024708617 268.067163417 l 1,11,-1
 42.0247086173 484.067163417 l 1,12,-1
 42.0247086173 523.932836583 l 1,13,-1
 186.024708617 739.932836583 l 1,14,-1
 216 756 l 1,15,-1
 504 756 l 1,16,-1
 533.975291383 739.932836583 l 1,17,-1
 677.975291383 523.932836583 l 1,18,-1
 677.975291383 484.067163417 l 1,19,-1
 533.975291383 268.067163417 l 1,20,-1
 504 252 l 1,21,-1
 396 252 l 1,22,-1
 396 -36 l 1,7,-1
235.263849104 324 m 1,23,-1
 484.736150896 324 l 1,24,-1
 604.736150896 504 l 1,25,-1
 484.736150896 684 l 1,26,-1
 235.263849104 684 l 1,27,-1
 115.263849104 504 l 1,28,-1
 235.263849104 324 l 1,23,-1
EndSplineSet
EndChar

StartChar: Z
Encoding: 90 90 19
Width: 720
Flags: W
LayerCount: 2
Back
SplineSet
360 504 m 1049,0,-1
216 288 m 25,1,-1
 72 504 l 1,2,-1
 216 720 l 1,3,-1
 504 720 l 1,4,-1
 648 504 l 1,5,-1
 504 288 l 1,6,-1
 216 288 l 25,1,-1
576 0 m 1,7,-1
 432 0 l 1,8,-1
 360 144 l 1,9,-1
 360 288 l 1025,10,-1
EndSplineSet
Fore
SplineSet
360 504 m 1049,0,-1
313 555 m 1,1,-1
 380.666992188 570.203125 l 1,2,-1
 427.666992188 519.203125 l 1,3,-1
 407 453 l 1,4,-1
 339.333007812 437.796875 l 1,5,-1
 292.333007812 488.796875 l 1,6,-1
 313 555 l 1,1,-1
612 36 m 1,7,-1
 612 -36 l 1,8,-1
 432 -36 l 1,9,-1
 399.779628007 -16.06471362 l 1,10,-1
 327.779628007 127.93528638 l 1,11,-1
 324 144 l 1,12,-1
 324 252 l 1,13,-1
 216 252 l 1,14,-1
 186.024708617 268.067163417 l 1,15,-1
 42.0247086173 484.067163417 l 1,16,-1
 42.0247086173 523.932836583 l 1,17,-1
 186.024708617 739.932836583 l 1,18,-1
 216 756 l 1,19,-1
 504 756 l 1,20,-1
 533.975291383 739.932836583 l 1,21,-1
 677.975291383 523.932836583 l 1,22,-1
 677.975291383 484.067163417 l 1,23,-1
 533.975291383 268.067163417 l 1,24,-1
 504 252 l 1,25,-1
 396 252 l 1,26,-1
 396 152.505457607 l 1,27,-1
 454.252728803 36 l 1,28,-1
 612 36 l 1,7,-1
235.263849104 324 m 1,29,-1
 484.736150896 324 l 1,30,-1
 604.736150896 504 l 1,31,-1
 484.736150896 684 l 1,32,-1
 235.263849104 684 l 1,33,-1
 115.263849104 504 l 1,34,-1
 235.263849104 324 l 1,29,-1
EndSplineSet
EndChar

StartChar: F
Encoding: 70 70 20
Width: 720
Flags: W
LayerCount: 2
Back
SplineSet
504 144 m 1,0,-1
 216 144 l 1049,1,-1
504 288 m 1,2,-1
 216 288 l 1,3,-1
 72 504 l 1,4,-1
 216 720 l 1,5,-1
 504 720 l 1,6,-1
 648 504 l 1,7,-1
 504 288 l 1,2,-1
216 288 m 1,8,-1
 216 0 l 1025,9,-1
EndSplineSet
Fore
SplineSet
540 180 m 1,0,-1
 540 108 l 1,1,-1
 252 108 l 1,2,-1
 252 -36 l 1,3,-1
 180 -36 l 1,4,-1
 180 277.104226343 l 1,5,-1
 42.0247086173 484.067163417 l 1,6,-1
 42.0247086173 523.932836583 l 1,7,-1
 186.024708617 739.932836583 l 1,8,-1
 216 756 l 1,9,-1
 504 756 l 1,10,-1
 533.975291383 739.932836583 l 1,11,-1
 677.975291383 523.932836583 l 1,12,-1
 677.975291383 484.067163417 l 1,13,-1
 533.975291383 268.067163417 l 1,14,-1
 504 252 l 1,15,-1
 252 252 l 1,16,-1
 252 180 l 1,17,-1
 540 180 l 1,0,-1
235.263849104 324 m 1,18,-1
 484.736150896 324 l 1,19,-1
 604.736150896 504 l 1,20,-1
 484.736150896 684 l 1,21,-1
 235.263849104 684 l 1,22,-1
 115.263849104 504 l 1,23,-1
 235.263849104 324 l 1,18,-1
EndSplineSet
EndChar

StartChar: H
Encoding: 72 72 21
Width: 720
Flags: W
HStem: 193 360<240.446 449.913>
VStem: 150 432<274.235 441.559>
LayerCount: 2
Back
SplineSet
648 0 m 1,0,-1
 648 720 l 1049,1,-1
360 360 m 1049,2,-1
360 72 m 1,3,-1
 72 216 l 1,4,-1
 72 504 l 1,5,-1
 360 648 l 1,6,-1
 648 504 l 1,7,-1
 648 216 l 1,8,-1
 360 72 l 1,3,-1
72 0 m 1,9,-1
 72 720 l 1049,10,-1
EndSplineSet
Fore
SplineSet
360 360 m 1049,0,-1
313 411 m 1,1,-1
 380.666992188 426.203125 l 1,2,-1
 427.666992188 375.203125 l 1,3,-1
 407 309 l 1,4,-1
 339.333007812 293.796875 l 1,5,-1
 292.333007812 344.796875 l 1,6,-1
 313 411 l 1,1,-1
108 -36 m 1,7,-1
 36 -36 l 1,8,-1
 36 756 l 1,9,-1
 108 756 l 1,10,-1
 108 562.252728803 l 1,11,-1
 343.93528638 680.220371993 l 1,12,-1
 376.06471362 680.220371993 l 1,13,-1
 612 562.252728803 l 1,14,-1
 612 756 l 1,15,-1
 684 756 l 1,16,-1
 684 -36 l 1,17,-1
 612 -36 l 1,18,-1
 612 157.747271197 l 1,19,-1
 376.06471362 39.7796280066 l 1,20,-1
 343.93528638 39.7796280066 l 1,21,-1
 108 157.747271197 l 1,22,-1
 108 -36 l 1,7,-1
108 481.747271197 m 1,23,-1
 108 238.252728803 l 1,24,-1
 360 112.252728803 l 1,25,-1
 612 238.252728803 l 1,26,-1
 612 481.747271197 l 1,27,-1
 360 607.747271197 l 1,28,-1
 108 481.747271197 l 1,23,-1
EndSplineSet
EndChar

StartChar: Y
Encoding: 89 89 22
Width: 720
Flags: W
LayerCount: 2
Back
SplineSet
72 288 m 1,0,-1
 360 720 l 1,1,-1
 648 288 l 1,2,-1
 72 288 l 1,0,-1
360 0 m 1,3,-1
 360 288 l 1049,4,-1
EndSplineSet
Fore
SplineSet
396 -36 m 1,0,-1
 324 -36 l 1,1,-1
 324 252 l 1,2,-1
 72 252 l 1,3,-1
 42.0247086173 307.932836583 l 1,4,-1
 330.024708617 739.932836583 l 1,5,-1
 389.975291383 739.932836583 l 1,6,-1
 677.975291383 307.932836583 l 1,7,-1
 648 252 l 1,8,-1
 396 252 l 1,9,-1
 396 -36 l 1,0,-1
139.263849104 324 m 1,10,-1
 580.736150896 324 l 1,11,-1
 360 655.104226343 l 1,12,-1
 139.263849104 324 l 1,10,-1
EndSplineSet
EndChar

StartChar: Ccircumflex
Encoding: 264 264 23
Width: 720
Flags: W
LayerCount: 2
Fore
SplineSet
36 144 m 1,0,-1
 36 576 l 1,1,-1
 55.93528638 608.220371993 l 1,2,-1
 343.93528638 752.220371993 l 1,3,-1
 376.06471362 752.220371993 l 1,4,-1
 664.06471362 608.220371993 l 1,5,-1
 684 576 l 1,6,-1
 684 360 l 1,7,-1
 664.06471362 327.779628007 l 1,8,-1
 376.06471362 183.779628007 l 1,9,-1
 343.93528638 183.779628007 l 1,10,-1
 108 301.747271197 l 1,11,-1
 108 166.252728803 l 1,12,-1
 408.303274564 16.1010915214 l 1,13,-1
 376.101091521 -48.3032745641 l 1,14,-1
 55.93528638 111.779628007 l 1,15,-1
 36 144 l 1,0,-1
108 382.252728803 m 1,16,-1
 360 256.252728803 l 1,17,-1
 612 382.252728803 l 1,18,-1
 612 553.747271197 l 1,19,-1
 360 679.747271197 l 1,20,-1
 108 553.747271197 l 1,21,-1
 108 382.252728803 l 1,16,-1
360 1029.098295 m 1,22,-1
 144 813.098295 l 1,23,-1
 93.098295 864 l 1,24,-1
 334.5491475 1105.4508525 l 1,25,-1
 385.4508525 1105.4508525 l 1,26,-1
 626.901705 864 l 1,27,-1
 576 813.098295 l 1,28,-1
 360 1029.098295 l 1,22,-1
EndSplineSet
LCarets2: 1 0
Ligature2: "'liga' +ahluljBuVAhbVwAA in +MOkwxjDzZYdbVwAA lookup 0-1" C asciicircum
EndChar

StartChar: Gcircumflex
Encoding: 284 284 24
Width: 864
Flags: W
LayerCount: 2
Fore
SplineSet
360 360 m 1049,0,-1
313 411 m 1,1,-1
 380.666992188 426.203125 l 1,2,-1
 427.666992188 375.203125 l 1,3,-1
 407 309 l 1,4,-1
 339.333007812 293.796875 l 1,5,-1
 292.333007812 344.796875 l 1,6,-1
 313 411 l 1,1,-1
360 1029.098295 m 1,7,-1
 144 813.098295 l 1,8,-1
 93.098295 864 l 1,9,-1
 334.5491475 1105.4508525 l 1,10,-1
 385.4508525 1105.4508525 l 1,11,-1
 626.901705 864 l 1,12,-1
 576 813.098295 l 1,13,-1
 360 1029.098295 l 1,7,-1
540 36 m 1,14,-1
 540 -36 l 1,15,-1
 216 -36 l 1,16,-1
 182.560069553 -13.3491207927 l 1,17,-1
 38.5600695527 346.650879207 l 1,18,-1
 38.5600695527 373.349120793 l 1,19,-1
 182.560069553 733.349120793 l 1,20,-1
 216 756 l 1,21,-1
 504 756 l 1,22,-1
 537.439930447 733.349120793 l 1,23,-1
 672.379578764 396 l 1,24,-1
 792 396 l 1,25,-1
 825.439930447 346.650879207 l 1,26,-1
 681.439930447 -13.3491207927 l 1,27,-1
 614.560069553 -13.3491207927 l 1,28,-1
 470.560069553 346.650879207 l 1,29,-1
 504 396 l 1,30,-1
 594.820421236 396 l 1,31,-1
 479.620421236 684 l 1,32,-1
 240.379578764 684 l 1,33,-1
 110.779578764 360 l 1,34,-1
 240.379578764 36 l 1,35,-1
 540 36 l 1,14,-1
557.179578764 324 m 1,36,-1
 648 96.948946911 l 1,37,-1
 738.820421236 324 l 1,38,-1
 557.179578764 324 l 1,36,-1
EndSplineSet
LCarets2: 1 0
Ligature2: "'liga' +ahluljBuVAhbVwAA in +MOkwxjDzZYdbVwAA lookup 0-1" G asciicircum
EndChar

StartChar: Hcircumflex
Encoding: 292 292 25
Width: 720
Flags: W
LayerCount: 2
Fore
SplineSet
360 360 m 1049,0,-1
313 411 m 1,1,-1
 380.666992188 426.203125 l 1,2,-1
 427.666992188 375.203125 l 1,3,-1
 407 309 l 1,4,-1
 339.333007812 293.796875 l 1,5,-1
 292.333007812 344.796875 l 1,6,-1
 313 411 l 1,1,-1
360 1029.098295 m 1,7,-1
 144 813.098295 l 1,8,-1
 93.098295 864 l 1,9,-1
 334.5491475 1105.4508525 l 1,10,-1
 385.4508525 1105.4508525 l 1,11,-1
 626.901705 864 l 1,12,-1
 576 813.098295 l 1,13,-1
 360 1029.098295 l 1,7,-1
108 -36 m 1,14,-1
 36 -36 l 1,15,-1
 36 756 l 1,16,-1
 108 756 l 1,17,-1
 108 562.252728803 l 1,18,-1
 343.93528638 680.220371993 l 1,19,-1
 376.06471362 680.220371993 l 1,20,-1
 612 562.252728803 l 1,21,-1
 612 756 l 1,22,-1
 684 756 l 1,23,-1
 684 -36 l 1,24,-1
 612 -36 l 1,25,-1
 612 157.747271197 l 1,26,-1
 376.06471362 39.7796280066 l 1,27,-1
 343.93528638 39.7796280066 l 1,28,-1
 108 157.747271197 l 1,29,-1
 108 -36 l 1,14,-1
108 481.747271197 m 1,30,-1
 108 238.252728803 l 1,31,-1
 360 112.252728803 l 1,32,-1
 612 238.252728803 l 1,33,-1
 612 481.747271197 l 1,34,-1
 360 607.747271197 l 1,35,-1
 108 481.747271197 l 1,30,-1
EndSplineSet
LCarets2: 1 0
Ligature2: "'liga' +ahluljBuVAhbVwAA in +MOkwxjDzZYdbVwAA lookup 0-1" H asciicircum
EndChar

StartChar: Jcircumflex
Encoding: 308 308 26
Width: 720
Flags: W
LayerCount: 2
Fore
SplineSet
360 1029.098295 m 1,0,-1
 144 813.098295 l 1,1,-1
 93.098295 864 l 1,2,-1
 334.5491475 1105.4508525 l 1,3,-1
 385.4508525 1105.4508525 l 1,4,-1
 626.901705 864 l 1,5,-1
 576 813.098295 l 1,6,-1
 360 1029.098295 l 1,0,-1
580.736150896 684 m 1,7,-1
 139.263849104 684 l 1,8,-1
 360 352.895773657 l 1,9,-1
 580.736150896 684 l 1,7,-1
396 36 m 1,10,-1
 612 36 l 1,11,-1
 612 -36 l 1,12,-1
 360 -36 l 1,13,-1
 324 0 l 1,14,-1
 324 277.104226343 l 1,15,-1
 42.0247086173 700.067163417 l 1,16,-1
 72 756 l 1,17,-1
 648 756 l 1,18,-1
 677.975291383 700.067163417 l 1,19,-1
 396 277.104226343 l 1,20,-1
 396 36 l 1,10,-1
EndSplineSet
LCarets2: 1 0
Ligature2: "'liga' +ahluljBuVAhbVwAA in +MOkwxjDzZYdbVwAA lookup 0-1" J asciicircum
EndChar

StartChar: Scircumflex
Encoding: 348 348 27
Width: 712
Flags: W
LayerCount: 2
Fore
SplineSet
360 1029.098295 m 1,0,-1
 144 813.098295 l 1,1,-1
 93.098295 864 l 1,2,-1
 334.5491475 1105.4508525 l 1,3,-1
 385.4508525 1105.4508525 l 1,4,-1
 626.901705 864 l 1,5,-1
 576 813.098295 l 1,6,-1
 360 1029.098295 l 1,0,-1
55.8989084786 23.6967254359 m 1,7,-1
 23.6967254359 88.1010915214 l 1,8,-1
 324 238.252728803 l 1,9,-1
 324 504 l 1,10,-1
 343.93528638 536.220371993 l 1,11,-1
 664.101091521 696.303274564 l 1,12,-1
 696.303274564 631.898908479 l 1,13,-1
 396 481.747271197 l 1,14,-1
 396 216 l 1,15,-1
 376.06471362 183.779628007 l 1,16,-1
 55.8989084786 23.6967254359 l 1,7,-1
EndSplineSet
LCarets2: 1 0
Ligature2: "'liga' +ahluljBuVAhbVwAA in +MOkwxjDzZYdbVwAA lookup 0-1" S asciicircum
EndChar

StartChar: Ubreve
Encoding: 364 364 28
Width: 864
Flags: W
LayerCount: 2
Fore
SplineSet
252 396 m 1,0,-1
 252 163.263849104 l 1,1,-1
 432 43.2638491044 l 1,2,-1
 612 163.263849104 l 1,3,-1
 612 396 l 1,4,-1
 252 396 l 1,0,-1
36 396 m 1,5,-1
 36 468 l 1,6,-1
 828 468 l 1,7,-1
 828 396 l 1,8,-1
 684 396 l 1,9,-1
 684 144 l 1,10,-1
 667.932836583 114.024708617 l 1,11,-1
 451.932836583 -29.9752913827 l 1,12,-1
 412.067163417 -29.9752913827 l 1,13,-1
 196.067163417 114.024708617 l 1,14,-1
 180 144 l 1,15,-1
 180 396 l 1,16,-1
 36 396 l 1,5,-1
180 972 m 1,17,-1
 252 972 l 1,18,-1
 252 811.263849104 l 1,19,-1
 432 691.263849104 l 1,20,-1
 612 811.263849104 l 1,21,-1
 612 972 l 1,22,-1
 684 972 l 1,23,-1
 684 792 l 1,24,-1
 667.932836583 762.024708617 l 1,25,-1
 451.932836583 618.024708617 l 1,26,-1
 412.067163417 618.024708617 l 1,27,-1
 196.067163417 762.024708617 l 1,28,-1
 180 792 l 1,29,-1
 180 972 l 1,17,-1
EndSplineSet
LCarets2: 1 0
Ligature2: "'liga' +ahluljBuVAhbVwAA in +MOkwxjDzZYdbVwAA lookup 0-1" U asciicircum
EndChar

StartChar: asciicircum
Encoding: 94 94 29
Width: 576
Flags: W
LayerCount: 2
Back
SplineSet
72 504 m 25,0,-1
 288 720 l 1,1,-1
 504 504 l 1049,2,-1
EndSplineSet
Fore
SplineSet
288 669.098295 m 1,0,-1
 72 453.098295 l 1,1,-1
 21.098295 504 l 1,2,-1
 262.5491475 745.4508525 l 1,3,-1
 313.4508525 745.4508525 l 1,4,-1
 554.901705 504 l 1,5,-1
 504 453.098295 l 1,6,-1
 288 669.098295 l 1,0,-1
EndSplineSet
EndChar

StartChar: comma
Encoding: 44 44 31
Width: 288
Flags: W
LayerCount: 2
Back
SplineSet
144 144 m 1,0,-1
 144 0 l 1,1,-1
 0 -144 l 1025,2,-1
EndSplineSet
Fore
SplineSet
108 180 m 1,0,-1
 180 180 l 1,1,-1
 180 0 l 1,2,-1
 169.4508525 -25.4508525 l 1,3,-1
 -1.30858999479e-13 -194.901705 l 1,4,-1
 -50.901705 -144 l 1,5,-1
 108 14.901705 l 1,6,-1
 108 180 l 1,0,-1
EndSplineSet
EndChar

StartChar: period
Encoding: 46 46 32
Width: 288
Flags: W
LayerCount: 2
Back
SplineSet
144 72 m 1049,0,-1
EndSplineSet
Fore
SplineSet
144 72 m 1049,0,-1
97 123 m 1,1,-1
 164.666992188 138.203125 l 1,2,-1
 211.666992188 87.203125 l 1,3,-1
 191 21 l 1,4,-1
 123.333007812 5.796875 l 1,5,-1
 76.3330078125 56.796875 l 1,6,-1
 97 123 l 1,1,-1
EndSplineSet
EndChar

StartChar: exclam
Encoding: 33 33 33
Width: 288
Flags: W
LayerCount: 2
Back
SplineSet
144 72 m 1049,2,-1
144 720 m 25,0,-1
 144 288 l 1025,1,-1
EndSplineSet
Fore
SplineSet
97 123 m 1,0,-1
 164.666992188 138.203125 l 1,1,-1
 211.666992188 87.203125 l 1,2,-1
 191 21 l 1,3,-1
 123.333007812 5.796875 l 1,4,-1
 76.3330078125 56.796875 l 1,5,-1
 97 123 l 1,0,-1
144 72 m 1049,6,-1
108 756 m 1,7,-1
 180 756 l 1,8,-1
 180 252 l 1,9,-1
 108 252 l 1,10,-1
 108 756 l 1,7,-1
EndSplineSet
EndChar

StartChar: question
Encoding: 63 63 34
Width: 576
Flags: W
LayerCount: 2
Back
SplineSet
72 576 m 25,0,-1
 288 720 l 25,1,-1
 504 576 l 25,2,-1
 504 432 l 25,3,-1
 288 288 l 1049,4,-1
288 72 m 1049,5,-1
EndSplineSet
Fore
SplineSet
241 123 m 1,0,-1
 308.666992188 138.203125 l 1,1,-1
 355.666992188 87.203125 l 1,2,-1
 335 21 l 1,3,-1
 267.333007812 5.796875 l 1,4,-1
 220.333007812 56.796875 l 1,5,-1
 241 123 l 1,0,-1
288 72 m 1049,6,-1
468 451.263849104 m 1,7,-1
 468 556.736150896 l 1,8,-1
 288 676.736150896 l 1,9,-1
 62.0160348221 526.08017411 l 1,10,-1
 22.0801741103 585.983965178 l 1,11,-1
 268.067163417 749.975291383 l 1,12,-1
 307.932836583 749.975291383 l 1,13,-1
 523.932836583 605.975291383 l 1,14,-1
 540 576 l 1,15,-1
 540 432 l 1,16,-1
 523.932836583 402.024708617 l 1,17,-1
 278.016034822 238.08017411 l 1,18,-1
 238.08017411 297.983965178 l 1,19,-1
 468 451.263849104 l 1,7,-1
EndSplineSet
EndChar

StartChar: equal
Encoding: 61 61 35
Width: 432
Flags: W
LayerCount: 2
Back
SplineSet
72 288 m 25,0,-1
 360 288 l 1049,1,-1
72 432 m 25,2,-1
 360 432 l 1049,3,-1
EndSplineSet
Fore
SplineSet
36 396 m 1,0,-1
 36 468 l 1,1,-1
 396 468 l 1,2,-1
 396 396 l 1,3,-1
 36 396 l 1,0,-1
36 252 m 1,4,-1
 36 324 l 1,5,-1
 396 324 l 1,6,-1
 396 252 l 1,7,-1
 36 252 l 1,4,-1
EndSplineSet
EndChar

StartChar: hyphen
Encoding: 45 45 36
Width: 432
Flags: W
LayerCount: 2
Back
SplineSet
72 360 m 25,0,-1
 360 360 l 1049,1,-1
EndSplineSet
Fore
SplineSet
36 324 m 1,0,-1
 36 396 l 1,1,-1
 396 396 l 1,2,-1
 396 324 l 1,3,-1
 36 324 l 1,0,-1
EndSplineSet
EndChar
